<?xml version="1.0" standalone="no"?><svg xmlns="http://www.w3.org/2000/svg" viewBox="0 0 1440 320"><path fill="#0073c09f" fill-opacity="1" d="M0,288L26.7,256C53.3,224,107,160,160,149.3C213.3,139,267,181,320,218.7C373.3,256,427,288,480,261.3C533.3,235,587,149,640,149.3C693.3,149,747,235,800,240C853.3,245,907,171,960,160C1013.3,149,1067,203,1120,197.3C1173.3,192,1227,128,1280,128C1333.3,128,1387,192,1413,224L1440,256L1440,0L1413.3,0C1386.7,0,1333,0,1280,0C1226.7,0,1173,0,1120,0C1066.7,0,1013,0,960,0C906.7,0,853,0,800,0C746.7,0,693,0,640,0C586.7,0,533,0,480,0C426.7,0,373,0,320,0C266.7,0,213,0,160,0C106.7,0,53,0,27,0L0,0Z"></path></svg>